<?xml version="1.0" encoding="UTF-8"?>
<svg xmlns="http://www.w3.org/2000/svg" viewBox="0 0 1000 600">
  <!-- Контур Казахстана -->
  <path d="M100,200 C150,180 200,150 300,140 L400,120 L500,100 L600,120 L700,150 
           C750,170 800,200 850,250 C900,300 890,350 850,400 C800,450 700,470 600,480
           C500,490 400,485 300,460 C200,440 150,400 120,350 C90,300 80,250 100,200 Z" 
        fill="#FFD700" 
        stroke="none"/>
  
  <!-- Города с маркерами в виде меток локации -->
  <g class="cities">
    <!-- Нур-Султан -->
    <g class="city">
      <path d="M450,220 L450,210 L450,220 L445,215 L450,220 L455,215 Z" fill="#000"/>
      <text x="450" y="205" class="city-name">Нур-Султан</text>
    </g>
    
    <!-- Петропавловск -->
    <g class="city">
      <path d="M400,120 L400,110 L400,120 L395,115 L400,120 L405,115 Z" fill="#000"/>
      <text x="400" y="105" class="city-name">Петропавловск</text>
    </g>
    
    <!-- Костанай -->
    <g class="city">
      <path d="M300,180 L300,170 L300,180 L295,175 L300,180 L305,175 Z" fill="#000"/>
      <text x="300" y="165" class="city-name">Костанай</text>
    </g>
    
    <!-- Павлодар -->
    <g class="city">
      <path d="M600,200 L600,190 L600,200 L595,195 L600,200 L605,195 Z" fill="#000"/>
      <text x="600" y="185" class="city-name">Павлодар</text>
    </g>
    
    <!-- Усть-Каменогорск -->
    <g class="city">
      <path d="M700,250 L700,240 L700,250 L695,245 L700,250 L705,245 Z" fill="#000"/>
      <text x="700" y="235" class="city-name">Усть-Каменогорск</text>
    </g>
    
    <!-- Актобе -->
    <g class="city">
      <path d="M200,250 L200,240 L200,250 L195,245 L200,250 L205,245 Z" fill="#000"/>
      <text x="200" y="235" class="city-name">Актобе</text>
    </g>
    
    <!-- Атырау -->
    <g class="city">
      <path d="M120,300 L120,290 L120,300 L115,295 L120,300 L125,295 Z" fill="#000"/>
      <text x="120" y="285" class="city-name">Атырау</text>
    </g>
    
    <!-- Караганда -->
    <g class="city">
      <path d="M500,280 L500,270 L500,280 L495,275 L500,280 L505,275 Z" fill="#000"/>
      <text x="500" y="265" class="city-name">Караганда</text>
    </g>
    
    <!-- Алма-Аты -->
    <g class="city">
      <path d="M650,400 L650,390 L650,400 L645,395 L650,400 L655,395 Z" fill="#000"/>
      <text x="650" y="385" class="city-name">Алма-Аты</text>
    </g>
    
    <!-- Шымкент -->
    <g class="city">
      <path d="M450,420 L450,410 L450,420 L445,415 L450,420 L455,415 Z" fill="#000"/>
      <text x="450" y="405" class="city-name">Шымкент</text>
    </g>
    
    <!-- Тараз -->
    <g class="city">
      <path d="M550,420 L550,410 L550,420 L545,415 L550,420 L555,415 Z" fill="#000"/>
      <text x="550" y="405" class="city-name">Тараз</text>
    </g>
  </g>

  <style>
    .city-name {
      font-family: Arial, sans-serif;
      font-size: 14px;
      fill: #000;
      text-anchor: middle;
      font-weight: bold;
    }
    .city:hover path {
      transform: scale(1.2);
      transform-origin: center;
      transition: transform 0.3s;
    }
    .city:hover text {
      font-size: 16px;
      transition: font-size 0.3s;
    }
  </style>
</svg>
